<?xml version="1.0" encoding="utf-8"?>
<!-- Generator: Adobe Illustrator 24.1.3, SVG Export Plug-In . SVG Version: 6.00 Build 0)  -->
<svg version="1.1" id="레이어_1" xmlns="http://www.w3.org/2000/svg" xmlns:xlink="http://www.w3.org/1999/xlink" x="0px"
	 y="0px" viewBox="0 0 24 24" style="enable-background:new 0 0 24 24;" xml:space="preserve">
<style type="text/css">
	.st0{fill:#FCFCFC;}
	.st1{fill:#3B75E3;}
</style>
<circle class="st0" cx="11.6" cy="12" r="8.6"/>
<path class="st1" d="M8.3,11.3c-0.1,0.1-0.2,0.2-0.2,0.3c-0.1,0.2-0.1,0.5,0,0.8c0,0.1,0.1,0.2,0.2,0.3l3,3c0.4,0.4,1,0.4,1.4,0
	c0.4-0.4,0.4-1,0-1.4L11.4,13H15c0.6,0,1-0.4,1-1s-0.4-1-1-1h-3.6l1.3-1.3c0.4-0.4,0.4-1,0-1.4c0,0,0,0,0,0c-0.4-0.4-1-0.4-1.4,0
	c0,0,0,0,0,0L8.3,11.3z M2,12c0,5.5,4.5,10,10,10s10-4.5,10-10S17.5,2,12,2S2,6.5,2,12z M20,12c0,4.4-3.6,8-8,8s-8-3.6-8-8
	s3.6-8,8-8S20,7.6,20,12z"/>
</svg>
