<?xml version="1.0" encoding="utf-8"?>
<!-- Generator: Adobe Illustrator 24.1.3, SVG Export Plug-In . SVG Version: 6.00 Build 0)  -->
<svg version="1.1" id="레이어_1" xmlns="http://www.w3.org/2000/svg" xmlns:xlink="http://www.w3.org/1999/xlink" x="0px"
	 y="0px" viewBox="0 0 24 24" style="enable-background:new 0 0 24 24;" xml:space="preserve">
<style type="text/css">
	.st0{fill:#FCFCFC;}
	.st1{fill:#3B75E3;}
</style>
<circle class="st0" cx="11.4" cy="12" r="8.6"/>
<path class="st1" d="M15.7,12.7c0.1-0.1,0.2-0.2,0.2-0.3c0.1-0.2,0.1-0.5,0-0.8c0-0.1-0.1-0.2-0.2-0.3l-3-3c-0.4-0.4-1-0.4-1.4,0
	s-0.4,1,0,1.4l1.3,1.3H9c-0.6,0-1,0.4-1,1s0.4,1,1,1h3.6l-1.3,1.3c-0.4,0.4-0.4,1,0,1.4c0,0,0,0,0,0c0.4,0.4,1,0.4,1.4,0
	c0,0,0,0,0,0L15.7,12.7z M22,12c0-5.5-4.5-10-10-10S2,6.5,2,12s4.5,10,10,10S22,17.5,22,12z M4,12c0-4.4,3.6-8,8-8s8,3.6,8,8
	s-3.6,8-8,8S4,16.4,4,12z"/>
</svg>
